<?xml version="1.0" encoding="utf-8"?>
<!-- Generator: Adobe Illustrator 27.8.0, SVG Export Plug-In . SVG Version: 6.00 Build 0)  -->
<svg version="1.1" id="Ebene_1" xmlns="http://www.w3.org/2000/svg" xmlns:xlink="http://www.w3.org/1999/xlink" x="0px" y="0px"
	 viewBox="0 0 65.8 66.8" style="enable-background:new 0 0 65.8 66.8;" xml:space="preserve">
<style type="text/css">
	.st0{fill:#AFCB31;}
	.st1{fill:#010203;}
</style>
<path class="st0" d="M37.2,22.9v-8.1c3.1,2.7,6.2,5.4,9.4,8.1H37.2z M46.6,51.7H19.2V15.1h16.7v9.2h10.7L46.6,51.7L46.6,51.7z
	 M32.9,0C-11,0.8-11,66,32.9,66.8C76.8,66,76.8,0.7,32.9,0"/>
<path class="st1" d="M22.4,63.9c1,0,2,0.2,3,0.3c0.4-8.1,1-16.2,2.9-24.1c-6.3-0.2-12.7-0.7-18.9-1.5c-1.3,8.3-2.5,16.7-2.2,25
	C11.6,64.9,17.5,63.4,22.4,63.9 M25,65.4C0.1,63.7,5,72.1,8.3,37.4c5.2-2.5,11.2-3.5,16.9-4.4c2,0.4,0.6,3.3,0.8,4.7
	c-1.8,2.2-0.9-2.7-1.1-3.5C19.6,35,14.4,36.3,9.4,38v0.3c30.9,0.7,16.8-2.4,17.3,25.1C26.6,64.3,27,65.9,25,65.4"/>
</svg>
